<?xml version="1.0" standalone="no"?>
<!DOCTYPE svg PUBLIC "-//W3C//DTD SVG 20010904//EN"
 "http://www.w3.org/TR/2001/REC-SVG-20010904/DTD/svg10.dtd">
<svg version="1.0" xmlns="http://www.w3.org/2000/svg"
 width="512.000000pt" height="512.000000pt" viewBox="0 0 512.000000 512.000000"
 preserveAspectRatio="xMidYMid meet">
<metadata>
Created by potrace 1.11, written by Peter Selinger 2001-2013
</metadata>
<g transform="translate(0.000000,512.000000) scale(0.100000,-0.100000)"
fill="#000000" stroke="none">
<path d="M1417 4950 c-20 -4 -50 -18 -65 -31 -15 -13 -28 -24 -30 -25 -3 -1
-83 -220 -87 -238 -1 -6 -5 -19 -8 -28 -4 -10 -10 -26 -14 -35 -3 -10 -7 -22
-9 -28 -2 -5 -28 -80 -58 -165 -85 -242 -176 -501 -192 -550 -8 -25 -18 -52
-21 -60 -3 -8 -7 -19 -9 -25 -3 -11 -68 -190 -77 -215 -3 -8 -24 -67 -45 -130
-22 -63 -74 -214 -117 -335 -42 -121 -92 -265 -111 -320 -19 -55 -43 -122 -53
-150 -10 -27 -40 -111 -66 -185 -64 -185 -121 -350 -155 -445 -109 -306 -159
-458 -163 -493 -4 -46 21 -106 55 -131 27 -19 73 -37 228 -91 63 -21 174 -60
245 -85 152 -54 341 -120 405 -141 25 -8 54 -19 65 -23 11 -5 40 -16 65 -24
25 -9 131 -46 235 -83 105 -36 246 -86 315 -109 69 -24 190 -67 270 -95 80
-28 152 -53 160 -55 8 -2 53 -18 100 -35 116 -42 282 -100 300 -105 8 -3 60
-21 115 -41 55 -20 105 -37 110 -38 6 -2 17 -6 25 -9 8 -4 85 -31 170 -61 85
-30 167 -59 183 -65 15 -6 27 -8 27 -5 0 4 6 2 13 -3 9 -8 112 -46 162 -60 29
-8 142 -50 152 -56 7 -4 37 -8 68 -8 65 -1 116 27 140 77 13 28 74 196 80 219
1 6 5 19 9 30 36 95 53 144 61 175 1 3 5 12 8 20 4 8 34 94 68 190 183 526
204 586 269 770 62 175 74 211 213 610 42 118 119 339 172 490 53 151 112 318
130 370 18 52 47 136 65 185 17 50 33 95 34 100 2 6 6 19 10 30 5 11 15 38 23
60 8 22 17 47 18 55 2 8 8 29 13 45 16 58 -7 134 -51 166 -21 15 -121 52 -372
139 -66 23 -149 52 -185 65 -36 13 -117 42 -180 63 -105 37 -398 139 -610 213
-47 17 -93 34 -102 39 -10 6 -23 10 -30 10 -6 0 -50 14 -97 31 -171 61 -592
210 -606 213 -5 2 -17 6 -25 9 -8 4 -53 20 -100 36 -217 75 -733 255 -805 281
-268 96 -282 99 -338 90z"/>
</g>
</svg>
